<svg data-v-0dd9719b="" version="1.0" xmlns="http://www.w3.org/2000/svg" xmlns:xlink="http://www.w3.org/1999/xlink"
	width="100%" height="100%" viewBox="0 0 340.000000 250.000000" preserveAspectRatio="xMidYMid meet"
	color-interpolation-filters="sRGB" style="margin: auto;">
	<rect data-v-0dd9719b="" x="0" y="0" width="100%" height="100%" fill="#0a0a37" fill-opacity="1" class="background">
	</rect>
	<rect data-v-0dd9719b="" x="0" y="0" width="100%" height="100%" fill="url(#watermark)" fill-opacity="1"
		class="watermarklayer"></rect>
	<g data-v-0dd9719b="" fill="#1891db" class="iconlettersvg-g iconlettersvg"
		transform="translate(30.742034912109375,99.99999809265137)">
		<g>
			<g class="tp-name">
				<g transform="scale(1)">
					<g transform="translate(0, 0)">
						<g class="name-imagesvg">
							<g>
								<rect fill="#1891db" fill-opacity="0" stroke-width="2" x="0" y="0"
									width="50.10344735507307" height="50" class="image-rect"></rect> <svg x="0" y="0"
									width="50.10344735507307" height="50" filtersec="colorsb7628258241"
									class="image-svg-svg primary" style="overflow: visible;"><svg
										xmlns="http://www.w3.org/2000/svg" viewBox="0 0 29.06 29.02">
										<path d="M29.06 7.39V29l-5.19-4L5.19 10.63V29H0V.07l5.19 4 18.68 14.39V7.39z"
											fill="#cfe2f3"></path>
										<path fill="#1891db" d="M29.02 0v5.16h-5.16V0z"></path>
									</svg></svg>
								<!---->
							</g>
						</g>
					</g>
					<g transform="translate(50.10344735507307, 0)">
						<g class="name-imagesvg">
							<g>
								<rect fill="#1891db" fill-opacity="0" stroke-width="2" x="0" y="0"
									width="49.98279382473225" height="50" class="image-rect"></rect> <svg x="0" y="0"
									width="49.98279382473225" height="50" filtersec="colorsb6422942004"
									class="image-svg-svg primary" style="overflow: visible;"><svg
										xmlns="http://www.w3.org/2000/svg" viewBox="0 0 29.05 29.06">
										<path d="M21 0v5.2h-3.89v23.86h-5.18V5.2H0V0z" fill="#cfe2f3"></path>
										<path fill="#1891db" d="M29.05 0v5.22h-5.22V0z"></path>
									</svg></svg>
								<!---->
							</g>
						</g>
					</g>
					<g transform="translate(100.08624117980531, 0)">
						<g class="name-imagesvg">
							<g>
								<rect fill="#1891db" fill-opacity="0" stroke-width="2" x="0" y="0" width="50"
									height="50" class="image-rect"></rect> <svg x="0" y="0" width="50" height="50"
									filtersec="colorsb4114861641" class="image-svg-svg primary"
									style="overflow: visible;"><svg xmlns="http://www.w3.org/2000/svg"
										viewBox="0 0 29.06 29.06">
										<path
											d="M29.06 7.43v7.1a14.53 14.53 0 0 1-29.06 0V0h5.18v14.53a9.35 9.35 0 0 0 18.7 0v-7.1z"
											fill="#1891db"></path>
										<path fill="#cfe2f3" d="M29.05.01v5.16h-5.16V.01z"></path>
									</svg></svg>
								<!---->
							</g>
						</g>
					</g>
					<g transform="translate(150.0862411798053, 0)">
						<g class="name-imagesvg">
							<g>
								<rect fill="#1891db" fill-opacity="0" stroke-width="2" x="0" y="0" width="50"
									height="50" class="image-rect"></rect> <svg x="0" y="0" width="50" height="50"
									filtersec="colorsb7917830531" class="image-svg-svg primary"
									style="overflow: visible;"><svg xmlns="http://www.w3.org/2000/svg"
										viewBox="0 0 29.06 29.06">
										<path fill="#1891db" d="M21.3 13.15v5.16h-5.16v-5.16z"></path>
										<path
											d="M29.06 0H14.53a14.53 14.53 0 0 0 0 29.06h14.53V13.13h-5.23l.05 10.75h-9.35a9.35 9.35 0 0 1 0-18.7h14.53z"
											fill="#cfe2f3"></path>
									</svg></svg>
								<!---->
							</g>
						</g>
					</g>
					<g transform="translate(200.0862411798053, 0)">
						<!---->
					</g>
					<g transform="translate(218.6539714454034, 0)">
						<g class="name-imagesvg">
							<g>
								<rect fill="#1891db" fill-opacity="0" stroke-width="2" x="0" y="0"
									width="50.94631994927214" height="50" class="image-rect"></rect> <svg x="0" y="0"
									width="50.94631994927214" height="50" filtersec="colorsb3222986700"
									class="image-svg-svg primary" style="overflow: visible;"><svg
										xmlns="http://www.w3.org/2000/svg" viewBox="0 0 29.61 29.06">
										<path
											d="M29.61 29.06H23.8l-2.66-5.19-6.33-12.45-6.34 12.45-2.65 5.19H0l2.64-5.19L14.81 0 27 23.87z"
											fill="#1891db"></path>
									</svg></svg>
								<!---->
							</g>
						</g>
					</g>
					<g transform="translate(269.60029139467554, 0)">
						<g class="name-imagesvg">
							<g>
								<rect fill="#1891db" fill-opacity="0" stroke-width="2" x="0" y="0"
									width="8.915662589295763" height="50" class="image-rect"></rect> <svg x="0" y="0"
									width="8.915662589295763" height="50" filtersec="colorsb690785974"
									class="image-svg-svg primary" style="overflow: visible;"><svg
										xmlns="http://www.w3.org/2000/svg" viewBox="0 0 5.18 29.05">
										<path d="M0 29.05V0h5.18v29.05z" fill="#1891db"></path>
									</svg></svg>
								<!---->
							</g>
						</g>
					</g>
				</g>
			</g>
		</g>
		<!---->
	</g>
	<defs v-gra="od"></defs>
</svg>